<svg xmlns="http://www.w3.org/2000/svg" viewBox="0 0 66.07 73.98"><defs><style>.cls-1{fill:#fff;}</style></defs><title>app-icon</title><g id="Lager_2" data-name="Lager 2"><g id="Lager_1-2" data-name="Lager 1"><polygon class="cls-1" points="45.43 27.51 33.03 34.67 20.63 27.51 33.03 20.35 45.43 27.51"/><polygon class="cls-1" points="30.03 39.86 30.03 54.18 17.63 47.02 17.63 32.7 30.03 39.86"/><polygon class="cls-1" points="48.43 32.7 48.43 47.02 36.03 54.18 36.03 39.86 48.43 32.7"/><polygon class="cls-1" points="33.03 0 4 16.77 12.62 21.74 14.62 22.9 33.03 12.26 51.45 22.9 53.45 21.74 62.07 16.77 33.03 0"/><polygon class="cls-1" points="10.62 51.09 10.62 29.82 8.62 28.67 0 23.69 0 57.22 29.04 73.98 29.04 61.72 10.62 51.09"/><polygon class="cls-1" points="57.45 28.67 55.45 29.82 55.45 51.09 37.03 61.72 37.03 73.98 66.07 57.22 66.07 23.69 57.45 28.67"/></g></g></svg>