<svg xmlns="http://www.w3.org/2000/svg" xmlns:xlink="http://www.w3.org/1999/xlink" viewBox="0 0 55.38 55.38"><defs><style>.cls-1{fill:#fff;}.cls-2{fill:url(#Namnlös_övertoning_37);}</style><linearGradient id="Namnlös_övertoning_37" x1="17.61" y1="-1.83" x2="36.61" y2="53.79" gradientUnits="userSpaceOnUse"><stop offset="0" stop-color="#fff" stop-opacity="0.85"/><stop offset="0.31" stop-color="#fff" stop-opacity="0.87"/><stop offset="0.7" stop-color="#fff" stop-opacity="0.93"/><stop offset="1" stop-color="#fff"/></linearGradient></defs><title>app-icon_4</title><g id="Lager_2" data-name="Lager 2"><g id="Lager_1-2" data-name="Lager 1"><polygon class="cls-1" points="0.01 24.08 0 24.08 0 24.05 0.01 24.08"/><polygon class="cls-1" points="4.03 36.29 0 36.77 0 26.1 0.65 26.01 4.03 36.29"/><polygon class="cls-1" points="8.08 48.55 0 49.56 0 38.79 4.67 38.22 8.08 48.55"/><path class="cls-1" d="M8.08,10.55,0,11.48V3.7A3.66,3.66,0,0,1,1.43.79L4.7.43Z"/><path class="cls-1" d="M8.72,50.51l1.6,4.87H3.71A3.71,3.71,0,0,1,0,51.67V51.6Z"/><path class="cls-1" d="M11.13,19.75A5.7,5.7,0,0,0,9.1,23l-7.17.84L0,18V13.46l8.72-1Z"/><path class="cls-1" d="M16.09,34.7A3.44,3.44,0,0,1,13,31.44v-.11H8.78v.11a6.36,6.36,0,0,0,1.46,4.1L6,36.05,2.57,25.78,9,25c.31,3.13,2.68,4.23,5.47,4.77h0Z"/><polygon class="cls-1" points="9.98 10.33 6.62 0.21 8.51 0 16.99 0 20.07 9.19 9.98 10.33"/><path class="cls-1" d="M20.19,47.05,10,48.32,6.59,38l5.8-.71h0a9.78,9.78,0,0,0,4.75,1.14h.18Z"/><polygon class="cls-1" points="20.83 48.99 22.96 55.38 12.33 55.38 10.65 50.26 20.83 48.99"/><path class="cls-1" d="M16.91,21.56a4.8,4.8,0,0,1,1.82.33l-4.56.53A4,4,0,0,1,16.91,21.56Z"/><path class="cls-1" d="M24.11,21.27l-.25,0a8.16,8.16,0,0,0-7-3.34,9.92,9.92,0,0,0-4,.79l-2.16-6.5L20.7,11.1Z"/><path class="cls-1" d="M20.71,32.34a2.27,2.27,0,0,1-1.5,2.11l-1.16.14-1.48-4.46C18.81,30.41,20.71,30.69,20.71,32.34Z"/><path class="cls-1" d="M25,33.76a6.21,6.21,0,0,0,.31-2c0-4.44-3.9-5.27-7.56-5.69a16,16,0,0,1-2.67-.5l-.4-1.21,5.92-.7a2.42,2.42,0,0,1,.16,1v.11h4.1v-.11a6.93,6.93,0,0,0-.16-1.45h.08l3.41,10.21Z"/><polygon class="cls-1" points="21.97 8.98 18.95 0 29.34 0 31.98 7.84 21.97 8.98"/><path class="cls-1" d="M32.23,45.56,22.11,46.81l-2.84-8.57a7.6,7.6,0,0,0,4.45-2.32h0l5.08-.61Z"/><polygon class="cls-1" points="32.88 47.49 35.51 55.38 24.96 55.38 22.76 48.76 32.88 47.49"/><path class="cls-1" d="M35.44,18.11a10,10,0,0,0-5.16,2.42L26,21,22.6,10.88l10-1.14Z"/><path class="cls-1" d="M26.65,23l1.83-.21a10.38,10.38,0,0,0-1.05,2.54Z"/><path class="cls-1" d="M40.11,31.94l-6.7.81a6.47,6.47,0,0,1-1.67-4.56c0-3.41,2-5.86,5-6.15Z"/><polygon class="cls-1" points="33.86 7.63 31.28 0 41.61 0 43.82 6.5 33.86 7.63"/><path class="cls-1" d="M37.37,34.38a4.49,4.49,0,0,1-.64,0l2.43-.29A4.9,4.9,0,0,1,37.37,34.38Z"/><path class="cls-1" d="M44.19,44.07,34.13,45.32l-2.92-8.73a10.41,10.41,0,0,0,6.06,1.84,10.67,10.67,0,0,0,4.67-1Z"/><path class="cls-1" d="M47.88,18.48l-5.73.67A10.34,10.34,0,0,0,37.34,18L34.5,9.53l10-1.13Z"/><polygon class="cls-1" points="44.84 46 48.01 55.38 37.5 55.38 34.78 47.26 44.84 46"/><path class="cls-1" d="M46.79,31.13v-.08l-4.38-.59,0,.1A4.67,4.67,0,0,1,42,31.65l-3.18-9.44a5.09,5.09,0,0,1,3.59,3.72l0,.1,4.41-.5,0-.12a8.23,8.23,0,0,0-2.34-4.55l4.08-.49L52,30.51Z"/><path class="cls-1" d="M55.38,3.7V5.18l-9.7,1.1L43.54,0h8.14A3.7,3.7,0,0,1,55.38,3.7Z"/><polygon class="cls-1" points="46.32 8.18 55.38 7.14 55.38 17.6 49.75 18.26 46.32 8.18"/><polygon class="cls-1" points="50.4 20.15 55.38 19.57 55.38 30.11 53.84 30.29 50.4 20.15"/><polygon class="cls-1" points="54.49 32.19 55.38 32.09 55.38 34.83 54.49 32.19"/><path class="cls-1" d="M55.38,40.57V42.7l-9.3,1.15L43.57,36.4a8.23,8.23,0,0,0,2.59-3.19l6.46-.78Z"/><path class="cls-1" d="M46.74,45.77l8.64-1.08v7a3.71,3.71,0,0,1-3.7,3.71H50Z"/><path class="cls-2" d="M14.65,24.36l5.92-.7a2.61,2.61,0,0,0-.63-1,3.32,3.32,0,0,0-1.21-.78,4.8,4.8,0,0,0-1.82-.33,4,4,0,0,0-2.74.86h0a1.84,1.84,0,0,0-.62,1.39c0,1,.59,1.45,1.51,1.76Zm1.92,5.77-.15,0c-.66-.08-1.32-.18-2-.3l1.63,4.89a5,5,0,0,0,1.19.13,4.55,4.55,0,0,0,1.93-.38,2.27,2.27,0,0,0,1.5-2.11C20.71,30.69,18.81,30.41,16.57,30.13ZM51.68,0h-48A3.65,3.65,0,0,0,1.43.79,3.66,3.66,0,0,0,0,3.7v48a3.71,3.71,0,0,0,3.71,3.71h48a3.71,3.71,0,0,0,3.7-3.71V3.7A3.7,3.7,0,0,0,51.68,0ZM43.57,36.4a9.19,9.19,0,0,1-1.63,1,10.67,10.67,0,0,1-4.67,1,10.41,10.41,0,0,1-6.06-1.84,10,10,0,0,1-4.15-8.4,11.35,11.35,0,0,1,.37-2.9h0a10.38,10.38,0,0,1,1.05-2.54h0a9.33,9.33,0,0,1,1.79-2.21,10,10,0,0,1,5.16-2.42A10.94,10.94,0,0,1,37.27,18h.07a10.34,10.34,0,0,1,4.81,1.19,9.07,9.07,0,0,1,2.29,1.71,8.23,8.23,0,0,1,2.34,4.55l0,.12-4.41.5,0-.1a5.17,5.17,0,0,0-5-3.92,6.08,6.08,0,0,0-.61,0c-3,.29-5,2.74-5,6.15a6.47,6.47,0,0,0,1.67,4.56,5.22,5.22,0,0,0,3.3,1.59h0a4.49,4.49,0,0,0,.64,0,4.9,4.9,0,0,0,1.79-.33s0,0,0,0A5.23,5.23,0,0,0,42,31.65a4.67,4.67,0,0,0,.43-1.09l0-.1,4.38.59v.08h0v0a7.5,7.5,0,0,1-.62,2.05A8.23,8.23,0,0,1,43.57,36.4Zm-26.24,2h-.18a9.78,9.78,0,0,1-4.75-1.14h0a7.12,7.12,0,0,1-2.15-1.75,6.36,6.36,0,0,1-1.46-4.1v-.11H13v.11a3.44,3.44,0,0,0,3.08,3.26,5,5,0,0,0,1.19.13,4.55,4.55,0,0,0,1.93-.38,2.27,2.27,0,0,0,1.5-2.11c0-1.65-1.9-1.93-4.14-2.21l-.15,0c-.66-.08-1.32-.18-2-.3h0C11.67,29.26,9.3,28.16,9,25c0-.23,0-.46,0-.71A6.26,6.26,0,0,1,9.1,23a5.7,5.7,0,0,1,2-3.26,7.11,7.11,0,0,1,1.65-1,9.92,9.92,0,0,1,4-.79,8.16,8.16,0,0,1,7.05,3.34,6.19,6.19,0,0,1,.81,1.88,6.93,6.93,0,0,1,.16,1.45v.11h-4.1v-.11a2.42,2.42,0,0,0-.16-1,2.61,2.61,0,0,0-.63-1,3.32,3.32,0,0,0-1.21-.78,4.8,4.8,0,0,0-1.82-.33,4,4,0,0,0-2.74.86h0a1.84,1.84,0,0,0-.62,1.39c0,1,.59,1.45,1.51,1.76a16,16,0,0,0,2.67.5c3.66.42,7.56,1.25,7.56,5.69a6.21,6.21,0,0,1-.31,2,5.63,5.63,0,0,1-1.24,2.16h0a7.6,7.6,0,0,1-4.45,2.32A10.06,10.06,0,0,1,17.33,38.42Z"/></g></g></svg>