<svg xmlns="http://www.w3.org/2000/svg" viewBox="0 0 12.77 11.5"><defs><style>.cls-1{fill:#fff;}</style></defs><title>layer-icon_1</title><g id="Lager_2" data-name="Lager 2"><g id="Lager_1-2" data-name="Lager 1"><polygon class="cls-1" points="12.77 8.63 6.39 11.5 0 8.63 1.26 8.05 5.74 10.07 6.39 10.37 7.04 10.07 11.51 8.05 12.77 8.63"/><polygon class="cls-1" points="12.77 5.75 11.52 6.32 9.58 7.19 6.39 8.63 3.2 7.19 1.25 6.32 0 5.75 1.26 5.18 2.52 5.75 4.45 6.63 5.73 7.2 6.39 7.49 7.04 7.2 8.32 6.62 10.25 5.75 11.51 5.18 12.77 5.75"/><polygon class="cls-1" points="12.77 2.87 11.51 3.44 9.58 4.32 8.32 4.88 6.39 5.75 4.45 4.88 3.2 4.32 1.26 3.44 0 2.87 6.39 0 12.77 2.87"/></g></g></svg>