<svg xmlns="http://www.w3.org/2000/svg" viewBox="0 0 66.39 28.33"><defs><style>.cls-1{fill:#fff;}</style></defs><title>link-icon</title><g id="Lager_2" data-name="Lager 2"><g id="Lager_1-2" data-name="Lager 1"><path class="cls-1" d="M6,14.16A8.18,8.18,0,0,1,14.17,6h14a8.18,8.18,0,0,1,8.17,8.16v1h6v-1A14.18,14.18,0,0,0,28.18,0h-14a14.17,14.17,0,1,0,0,28.33h8v-6h-8A8.18,8.18,0,0,1,6,14.16Z"/><path class="cls-1" d="M52.22,0h-8V6h8a8.17,8.17,0,1,1,0,16.33h-14A8.18,8.18,0,0,1,30,14.17v-1H24v1A14.18,14.18,0,0,0,38.21,28.33h14A14.17,14.17,0,1,0,52.22,0Z"/></g></g></svg>