<svg xmlns="http://www.w3.org/2000/svg" viewBox="0 0 12.25 12.25"><defs><style>.cls-1{fill:#fff;}</style></defs><title>single-selection-icon</title><g id="Lager_2" data-name="Lager 2"><g id="Lager_1-2" data-name="Lager 1"><path class="cls-1" d="M10.11,1a1.14,1.14,0,0,1,1.14,1.14v8a1.14,1.14,0,0,1-1.14,1.14h-8A1.14,1.14,0,0,1,1,10.11v-8A1.14,1.14,0,0,1,2.14,1h8m0-1h-8A2.14,2.14,0,0,0,0,2.14v8a2.14,2.14,0,0,0,2.14,2.14h8a2.14,2.14,0,0,0,2.14-2.14v-8A2.14,2.14,0,0,0,10.11,0Z"/><rect class="cls-1" x="2.64" y="2.64" width="2.32" height="2.32"/></g></g></svg>